<?xml version="1.0" encoding="UTF-8" standalone="no"?>
<!-- Created with Inkscape (http://www.inkscape.org/) -->

<svg
   width="130mm"
   height="35mm"
   viewBox="0 0 130 35.000001"
   version="1.1"
   id="svg1"
   xmlns="http://www.w3.org/2000/svg"
   xmlns:svg="http://www.w3.org/2000/svg">
  <defs
     id="defs1" />
  <g
     id="layer1"
     transform="translate(-41.177769,-141.62077)">
    <g
       id="g2"
       transform="translate(0.66310451)"
       style="fill:#ffffff">
      <g
         id="g53-6-8-4"
         transform="translate(-0.57478851,81.474069)"
         style="fill:#ffffff">
        <path
           style="fill:#ffffff"
           d="m 97.36333,69.652358 c -0.576788,-0.258453 -0.892922,-0.957977 -0.757988,-1.677234 0.217833,-1.161152 1.675615,-1.553128 2.544551,-0.684193 0.406754,0.406754 0.452238,0.537003 0.37878,1.084673 -0.149826,1.11704 -1.174039,1.720948 -2.165343,1.276754 z"
           id="path53-2-5-8" />
        <path
           style="fill:#ffffff"
           d="m 137.33448,77.595658 v -5.762615 h 1.289 1.28901 v 0.905896 0.905896 l 0.65474,-0.654739 c 0.71199,-0.711996 1.75382,-1.157053 2.70852,-1.157053 h 0.57958 v 1.411253 1.411253 l -1.02362,-0.0085 c -1.27128,-0.01057 -1.92707,0.332254 -2.46428,1.288247 -0.36763,0.654222 -0.38065,0.776895 -0.42964,4.048826 l -0.0505,3.374162 h -1.2764 -1.27639 z"
           id="path52-6-9-1" />
        <path
           style="fill:#ffffff"
           d="m 117.39082,83.168714 c -0.0376,-0.104258 -0.31481,-0.871975 -0.61612,-1.706038 -0.30131,-0.834062 -0.97828,-2.744824 -1.50437,-4.246137 -0.5261,-1.501313 -1.16796,-3.297307 -1.42637,-3.991099 -0.2584,-0.693792 -0.46983,-1.290905 -0.46983,-1.326918 0,-0.03601 0.63124,-0.06424 1.40274,-0.06272 l 1.40275,0.0028 1.35725,4.238314 c 0.7465,2.331072 1.37615,4.219427 1.39924,4.196343 0.0802,-0.08024 2.627,-8.094563 2.627,-8.266823 0,-0.118001 0.46515,-0.173347 1.45688,-0.173347 1.32704,0 1.44737,0.02365 1.35022,0.265384 -0.0886,0.220527 -3.05274,8.458181 -3.81966,10.615343 l -0.22913,0.644503 h -1.43116 c -1.00741,0 -1.45138,-0.05613 -1.49944,-0.189559 z"
           id="path51-1-7-2" />
        <path
           style="fill:#ffffff"
           d="m 96.692878,77.595658 v -5.762615 h 1.36483 1.364829 v 5.762615 5.762615 h -1.364829 -1.36483 z"
           id="path50-8-5-8" />
        <path
           id="path49-7-3-9"
           style="fill:#ffffff"
           d="m 160.99327,71.708285 c -0.29774,-0.01944 -0.61365,-0.01665 -0.95549,0.0057 -3.03945,0.198607 -5.12879,2.598284 -5.12579,5.886462 0.003,2.914892 1.31332,4.948605 3.72897,5.787761 0.9401,0.326572 2.6451,0.349847 3.65611,0.04961 0.95605,-0.283915 2.0584,-1.063918 2.66082,-1.883089 0.25146,-0.341939 0.43376,-0.644099 0.41341,-0.682646 -1.9e-4,-2.74e-4 -8.2e-4,-0.0013 -0.001,-0.0016 l -5.2e-4,-5.17e-4 c -0.0309,-0.0264 -0.51901,-0.231056 -1.08469,-0.454752 l -1.02836,-0.406694 -0.4501,0.449585 c -0.60812,0.608127 -1.36184,0.832939 -2.46083,0.733289 -0.6995,-0.06343 -1.02959,-0.183314 -1.45624,-0.528134 -0.60027,-0.485143 -1.0033,-1.087476 -1.16427,-1.740462 l -0.10284,-0.417029 h 4.1336 4.13308 l -0.0925,-1.20096 c -0.16914,-2.193323 -1.01229,-3.855475 -2.42828,-4.787305 -0.75483,-0.496743 -1.48182,-0.750928 -2.37505,-0.809252 z m -0.63355,2.097029 c 1.15368,0.0084 2.2957,0.73532 2.58589,1.88774 0.0931,0.369565 0.16898,0.710058 0.16898,0.756543 -2e-5,0.04648 -1.22825,0.08475 -2.72955,0.08475 -2.08342,0 -2.72951,-0.04497 -2.72851,-0.189653 0.004,-0.452946 0.76236,-1.765235 1.20147,-2.077909 0.45032,-0.320657 0.97732,-0.465289 1.50172,-0.461471 z" />
        <path
           style="fill:#ffffff"
           d="m 147.49488,83.519759 c -1.40878,-0.430084 -2.36391,-1.315615 -2.86576,-2.656933 -0.17537,-0.4687 -0.31885,-0.883742 -0.31885,-0.922316 0,-0.03857 0.58175,-0.07014 1.29276,-0.07014 1.21563,0 1.30081,0.02116 1.4276,0.354653 0.16889,0.444205 0.97311,1.131517 1.46987,1.256196 0.20661,0.05186 0.72617,0.0606 1.15458,0.01944 0.9608,-0.09232 1.63099,-0.721186 1.63099,-1.530423 0,-0.904891 -0.39717,-1.12123 -3.25056,-1.770572 -2.10958,-0.480076 -3.12061,-1.288363 -3.3423,-2.672087 -0.15983,-0.997538 0.15167,-1.853449 0.95933,-2.636026 1.72553,-1.671941 5.14295,-1.647022 6.88238,0.05018 0.52745,0.514647 1.25309,1.614475 1.13028,1.713122 -0.0157,0.01263 -0.60864,0.06965 -1.31759,0.126701 -1.2362,0.09949 -1.29522,0.08985 -1.44066,-0.235226 -0.27728,-0.619783 -0.92037,-0.958511 -1.81977,-0.958511 -1.15929,0 -1.66813,0.389887 -1.66813,1.278174 0,0.87744 0.37554,1.130839 2.24029,1.511666 1.90105,0.388241 2.85817,0.806112 3.51721,1.535595 0.63801,0.706199 0.74088,1.067642 0.66098,2.322454 -0.10016,1.572883 -0.96911,2.576121 -2.7571,3.183158 -0.74852,0.25413 -2.88654,0.314287 -3.58555,0.100887 z"
           id="path47-9-8-3" />
        <path
           id="path46-2-8-6"
           style="fill:#ffffff"
           d="m 130.78582,71.708285 c -0.29723,-0.01835 -0.61279,-0.01611 -0.9524,0.0057 -3.33539,0.214052 -5.59477,3.277401 -5.09065,6.901904 0.34788,2.501202 1.65408,4.142529 3.83956,4.825545 0.91389,0.285613 2.78731,0.269853 3.68298,-0.031 1.00284,-0.336861 1.95716,-1.007685 2.49959,-1.756482 0.24548,-0.338869 0.44649,-0.667702 0.44649,-0.731222 0,-0.06352 -0.4754,-0.302305 -1.05627,-0.5302 l -1.05575,-0.413928 -0.42271,0.452169 c -0.90207,0.96567 -2.90247,1.091488 -3.94602,0.248046 -0.61805,-0.499532 -1.02105,-1.097444 -1.18339,-1.755965 l -0.10283,-0.417029 h 4.1336 4.13359 l -0.0889,-1.257804 c -0.15378,-2.179077 -1.0168,-3.836411 -2.48667,-4.775936 -0.73046,-0.4669 -1.45857,-0.708729 -2.35024,-0.763777 z m -0.46199,2.115633 c 1.24891,0.02026 2.3535,0.868335 2.56522,2.172994 l 0.0873,0.537435 h -2.7497 c -1.51222,0 -2.74919,-0.05823 -2.74919,-0.129192 0,-0.287076 0.36805,-1.186414 0.65267,-1.594734 0.16665,-0.239087 0.58262,-0.56149 0.92449,-0.716752 0.42063,-0.191025 0.85287,-0.276506 1.26918,-0.269751 z" />
        <path
           id="path44-0-3-8"
           style="fill:#ffffff"
           d="m 89.890637,71.681413 c -1.735918,0 -2.634161,0.318023 -3.584794,1.268656 -0.779291,0.779291 -1.442301,2.152976 -1.215946,2.519226 0.05271,0.08528 0.586201,0.155032 1.185974,0.15503 1.070466,-4e-6 1.098539,-0.01035 1.526522,-0.546737 0.725327,-0.909042 1.945828,-1.21746 3.018937,-0.763261 0.740489,0.313415 1.028388,0.733046 1.121378,1.635559 l 0.0832,0.811837 H 90.07564 c -2.472709,0 -3.432931,0.275318 -4.470528,1.282092 -1.897308,1.840947 -1.011028,4.815948 1.658296,5.566069 1.386001,0.389487 3.03951,-0.01371 4.186308,-1.02061 l 0.580327,-0.509013 -0.06098,0.639238 -0.06098,0.63872 h 1.420585 1.420585 l -0.05684,-4.283976 c -0.05469,-4.125389 -0.06952,-4.310837 -0.411344,-5.00848 -0.742203,-1.514795 -2.343375,-2.38435 -4.39043,-2.38435 z m 0.36742,6.672461 c 1.269899,0 1.582498,0.08542 1.581298,0.433048 -0.0034,1.008659 -0.864539,2.318525 -1.774051,2.698543 -1.107607,0.462788 -2.262611,0.116514 -2.702161,-0.809769 -0.287188,-0.605204 -0.174773,-1.109085 0.357084,-1.60197 0.565031,-0.523628 1.256175,-0.719852 2.53783,-0.719852 z" />
        <path
           id="path42-2-1-0"
           style="fill:#ffffff"
           d="m 106.42348,71.675212 c -1.504,-0.0589 -3.07256,0.567311 -4.06849,1.789038 -1.43651,1.762199 -1.6847,4.584002 -0.59634,6.786149 0.93416,1.890149 2.39311,2.80448 4.47466,2.80448 1.21822,0 2.1453,-0.291196 2.93109,-0.921391 l 0.56689,-0.454753 -0.0879,0.953431 c -0.11622,1.261741 -0.30757,1.848637 -0.78704,2.418457 -0.52131,0.619545 -1.19394,0.885734 -2.24069,0.885734 -1.00165,0 -1.78109,-0.326329 -2.22983,-0.933277 -0.17552,-0.237405 -0.42577,-0.430531 -0.55604,-0.429431 -0.13028,0.0011 -0.73368,0.277628 -1.34101,0.614433 l -1.10432,0.612366 0.30592,0.429431 c 0.71269,1.000881 1.72963,1.681378 3.07475,2.057755 1.136,0.317861 3.28179,0.216388 4.37493,-0.206705 1.6664,-0.644974 2.71139,-1.969537 3.01118,-3.817339 0.0908,-0.559883 0.15955,-3.439264 0.1602,-6.70605 l 10e-4,-5.724715 h -1.36477 -1.36477 v 0.605647 0.605648 l -0.65991,-0.503845 c -0.71796,-0.548025 -1.59719,-0.829726 -2.49959,-0.865063 z m 0.11885,2.427242 c 1.06507,-0.01626 2.15956,0.526146 2.71715,1.518253 0.96972,1.72538 0.30391,3.94258 -1.41903,4.725293 -0.72006,0.327117 -1.45182,0.347007 -2.25258,0.06149 -1.227,-0.437485 -1.91254,-1.526679 -1.91254,-3.039091 0,-1.114405 0.35419,-1.952006 1.1038,-2.610176 0.49596,-0.435457 1.12416,-0.646017 1.7632,-0.655774 z" />
      </g>
      <g
         id="g1"
         transform="matrix(0.86255963,0,0,0.86255963,22.20844,-21.548141)"
         style="fill:#ffffff">
        <path
           d="m 55.666369,213.68049 c -0.5267,0.51201 -1.23509,0.83822 -2.019,0.8723 l -1.13223,8.51524 c 0.44526,0.15581 0.84426,0.41067 1.17047,0.73794 2.08216,-1.35348 3.85137,-3.14737 5.17591,-5.24981 -0.60632,-0.56479 -0.98547,-1.37041 -0.98547,-2.26446 0,-0.35407 0.0595,-0.69435 0.16899,-1.01131 z"
           id="path769"
           style="fill:#ffffff" />
        <path
           d="m 59.236179,200.95517 c -0.2962,0.12007 -0.61528,0.1955 -0.94878,0.21807 l -2.81585,7.89203 c 0.69173,0.5679 1.13326,1.43015 1.13326,2.39468 0,0.40149 -0.0769,0.78526 -0.216,1.1374 l 2.33215,1.5689 c 0.56399,-0.59731 1.36295,-0.96997 2.24896,-0.96997 0.0344,0 0.0687,4.4e-4 0.10284,0.002 0.27022,-1.20795 0.4129,-2.46427 0.41289,-3.75378 3e-5,-3.08918 -0.81797,-5.98704 -2.24947,-8.48888 z"
           id="path752"
           style="fill:#ffffff" />
        <path
           d="m 55.680319,200.04566 -5.05964,0.88367 2.43758,7.46776 c 0.14779,-0.0217 0.29891,-0.0331 0.45269,-0.0331 0.27425,0 0.54005,0.0358 0.79323,0.10284 l 2.67167,-7.4874 c -0.50988,-0.19399 -0.95551,-0.51911 -1.29553,-0.9338 z"
           id="path701"
           style="fill:#ffffff" />
        <path
           d="m 42.36744,202.37007 c -0.05072,0.23232 -0.127121,0.45497 -0.226859,0.66456 l 9.159648,6.25905 c 0.16239,-0.16573 0.343,-0.31319 0.53898,-0.43925 l -2.51302,-7.69927 z"
           id="path627"
           style="fill:#ffffff" />
        <path
           d="m 42.246001,215.20029 c 0.06467,0.24896 0.09922,0.51012 0.09922,0.77928 0,0.52201 -0.130121,1.01381 -0.358634,1.44539 l 7.661552,6.08129 c 0.44771,-0.3335 0.98873,-0.54882 1.57664,-0.59945 l 1.13947,-8.57105 c -0.71497,-0.28556 -1.29846,-0.82986 -1.63504,-1.51722 z"
           id="path514"
           style="fill:#ffffff" />
        <path
           d="m 39.91436,212.95702 c 0.691311,0.15132 1.296053,0.53363 1.72961,1.06195 l 8.772589,-2.46186 c -10e-4,-0.0323 -10e-4,-0.0646 -10e-4,-0.0971 0,-0.3749 0.0663,-0.73445 0.18862,-1.06712 l -9.257832,-6.32675 c -0.408024,0.34653 -0.906736,0.58934 -1.455725,0.6873 z"
           id="path508"
           style="fill:#ffffff" />
        <path
           d="m 29.702064,214.02931 c -0.341111,0.54122 -0.844833,0.96952 -1.442806,1.21594 0.95326,2.64719 2.54006,4.99168 4.578015,6.85023 0.506715,-0.36196 1.127104,-0.57516 1.796789,-0.57516 0.19406,0 0.383725,0.018 0.567924,0.0522 l 1.736328,-3.53415 c -0.476586,-0.53444 -0.770934,-1.23488 -0.784448,-2.00349 z"
           id="path418"
           style="fill:#ffffff" />
        <path
           d="m 29.684494,210.70703 c 0.31153,0.48262 0.492476,1.05783 0.492476,1.67483 0,0.14428 -0.0098,0.28625 -0.02894,0.4253 l 6.25905,1.94458 c 0.39416,-0.91001 1.212743,-1.59351 2.206066,-1.80092 0,0 5.17e-4,0 5.17e-4,0 l -0.02377,-8.24136 c -0.581714,-0.14557 -1.098334,-0.45599 -1.497066,-0.8785 z"
           id="path412"
           style="fill:#ffffff" />
        <path
           d="m 41.151494,218.42129 c -0.524957,0.4096 -1.185315,0.6537 -1.90221,0.6537 -0.442764,0 -0.86386,-0.0933 -1.244885,-0.26096 l -1.601969,3.2613 c 0.802207,0.55959 1.327567,1.48943 1.327567,2.54093 0,0.20069 -0.01927,0.39695 -0.05581,0.58704 2.056245,0.87448 4.318562,1.35807 6.694165,1.35806 1.389074,-3e-5 2.739706,-0.16524 4.032829,-0.47749 -9.04e-4,-0.0308 -0.0016,-0.062 -0.0016,-0.093 0,-0.54705 0.1421,-1.06075 0.391188,-1.50689 z"
           id="path381"
           style="fill:#ffffff" />
        <path
           d="m 33.127177,199.6338 c -0.529064,0.94906 -1.542853,1.59164 -2.705778,1.59164 -0.343677,0 -0.67455,-0.0561 -0.983402,-0.15968 -1.369436,2.43533 -2.160022,5.23981 -2.185913,8.22688 0.556283,0.0302 1.073406,0.20708 1.513603,0.493 l 7.642944,-7.09466 c -0.103472,-0.30892 -0.159164,-0.63912 -0.159164,-0.98289 10e-7,-0.2701 0.0342,-0.53256 0.09922,-0.78238 z"
           id="path257"
           style="fill:#ffffff" />
        <path
           d="m 43.896546,193.35873 c -0.210547,-0.30087 -0.368811,-0.64071 -0.461987,-1.00665 -3.952886,0.21244 -7.549391,1.76572 -10.342522,4.21318 0.269854,0.459 0.424781,0.99342 0.424781,1.56424 0,0.0861 -0.0034,0.17148 -0.01034,0.2558 l 3.431316,1.37563 c 0.567175,-0.70067 1.433719,-1.14877 2.405021,-1.14877 0.45039,0 0.878864,0.0965 1.265039,0.26975 z"
           id="path192"
           style="fill:#ffffff" />
        <path
           d="m 47.183684,194.59122 c -0.23979,0.0597 -0.490551,0.0915 -0.748792,0.0915 -0.569172,0 -1.102741,-0.15431 -1.561145,-0.42272 l -3.21324,5.39605 c 0.345199,0.38952 0.593677,0.86629 0.707967,1.3932 l 6.549985,-1.1436 z"
           id="path186"
           style="fill:#ffffff" />
        <path
           d="m 49.181499,193.01302 c -0.20117,0.38699 -0.48189,0.72603 -0.820109,0.9958 l 1.851569,5.67097 4.85758,-0.84801 c -0.0593,-0.23924 -0.091,-0.48922 -0.091,-0.74672 0,-0.61537 0.17988,-1.18887 0.48989,-1.6707 -1.80971,-1.54326 -3.94453,-2.71613 -6.28798,-3.40134 z"
           id="path180"
           style="fill:#ffffff" />
      </g>
    </g>
  </g>
</svg>
